<svg width="160" height="159" viewBox="0 0 160 159" fill="none" xmlns="http://www.w3.org/2000/svg">
<path d="M98.6178 36.6908C78.3545 36.6908 37.7649 20.2643 37.7649 0H37.4648C37.4648 16.2186 43.9075 31.7729 55.3756 43.2414C66.8436 54.7099 82.3975 61.1531 98.6163 61.1537C108.347 61.1537 117.68 65.0194 124.562 71.9005C131.443 78.7814 135.309 88.1142 135.309 97.8453C135.311 107.576 131.447 116.911 124.567 123.793C117.687 130.676 108.355 134.543 98.6239 134.545C88.8921 134.547 79.5585 130.683 72.676 123.803C65.7935 116.923 61.9258 107.591 61.9239 97.8599C61.9237 89.8288 60.3417 81.8765 57.2682 74.4573C54.1947 67.0378 49.6899 60.2963 44.011 54.6178C38.3321 48.9393 31.5905 44.4349 24.1708 41.3618C16.7511 38.2889 8.79875 36.7073 0.767883 36.7077V37.0053C21.0284 37.0053 37.455 77.5774 37.4625 97.8446H37.4587C37.4586 109.94 41.045 121.763 47.7644 131.82C54.4839 141.877 64.0346 149.715 75.2089 154.344C86.3832 158.973 98.679 160.185 110.542 157.825C122.404 155.466 133.301 149.642 141.854 141.09C150.407 132.538 156.232 121.642 158.592 109.779C160.953 97.9164 159.742 85.6207 155.114 74.4459C150.486 63.2713 142.649 53.7199 132.593 46.9995C122.536 40.2792 110.713 36.6918 98.6178 36.6908Z" fill="url(#paint0_linear_1_241)"/>
<defs>
<linearGradient id="paint0_linear_1_241" x1="127.491" y1="137.535" x2="35.1119" y2="10.653" gradientUnits="userSpaceOnUse">
<stop offset="0.295" stop-color="#E73959"/>
<stop offset="0.384" stop-color="#E73D58"/>
<stop offset="0.477" stop-color="#E74955"/>
<stop offset="0.571" stop-color="#E95E51"/>
<stop offset="0.666" stop-color="#EA7B4B"/>
<stop offset="0.761" stop-color="#EDA044"/>
<stop offset="0.857" stop-color="#EFCE3B"/>
<stop offset="0.868" stop-color="#F0D43A"/>
</linearGradient>
</defs>
</svg>
